{
  "accessors": [
    {
      "bufferView": 2,
      "componentType": 5126,
      "count": 13089,
      "max": [
        0.6336209774017334,
        0.8135330080986023,
        0.9705899953842163
      ],
      "min": [
        -0.5351240038871765,
        -0.8519579768180847,
        -0.15550999343395233
      ],
      "type": "VEC3"
    },
    {
      "bufferView": 2,
      "byteOffset": 157068,
      "componentType": 5126,
      "count": 13089,
      "max": [
        0.9912223815917969,
        0.9547702670097351,
        0.9273998737335205
      ],
      "min": [
        -0.9912219047546387,
        -0.954770028591156,
        -0.9273982644081116
      ],
      "type": "VEC3"
    },
    {
      "bufferView": 3,
      "componentType": 5126,
      "count": 13089,
      "max": [
        0.9957950711250305,
        0.9517665505409241,
        0.978476881980896,
        -1.0
      ],
      "min": [
        -0.9911529421806335,
        -0.9517626166343689,
        -0.9784767031669617,
        -1.0
      ],
      "type": "VEC4"
    },
    {
      "bufferView": 1,
      "componentType": 5126,
      "count": 13089,
      "max": [
        0.9935320019721985,
        0.9907979965209961
      ],
      "min": [
        0.011935800313949585,
        0.009201889857649803
      ],
      "type": "VEC2"
    },
    {
      "bufferView": 0,
      "componentType": 5125,
      "count": 25596,
      "type": "SCALAR"
    },
    {
      "bufferView": 2,
      "byteOffset": 314136,
      "componentType": 5126,
      "count": 5144,
      "max": [
        0.6599940061569214,
        0.8747259974479675,
        1.0
      ],
      "min": [
        -0.6599940061569214,
        -0.8747259974479675,
        -1.0
      ],
      "type": "VEC3"
    },
    {
      "bufferView": 2,
      "byteOffset": 375864,
      "componentType": 5126,
      "count": 5144,
      "max": [
        0.9977562427520752,
        0.9928373694419861,
        0.9980923533439636
      ],
      "min": [
        -0.9987051486968994,
        -0.9987819790840149,
        -0.9910674691200256
      ],
      "type": "VEC3"
    },
    {
      "bufferView": 3,
      "byteOffset": 209424,
      "componentType": 5126,
      "count": 5144,
      "max": [
        0.9961602091789246,
        0.9898828268051147,
        0.998886227607727,
        1.0
      ],
      "min": [
        -0.9971798062324524,
        -0.9983696341514587,
        -0.9944906234741211,
        -1.0
      ],
      "type": "VEC4"
    },
    {
      "bufferView": 1,
      "byteOffset": 104712,
      "componentType": 5126,
      "count": 5144,
      "max": [
        0.9898210167884827,
        0.9880639910697937
      ],
      "min": [
        0.009185819886624813,
        0.006467930041253567
      ],
      "type": "VEC2"
    },
    {
      "bufferView": 0,
      "byteOffset": 102384,
      "componentType": 5125,
      "count": 5892,
      "type": "SCALAR"
    }
  ],
  "asset": {
    "extras": {
      "author": "P3TroV (https://sketchfab.com/P3TroV)",
      "license": "CC-BY-4.0 (http://creativecommons.org/licenses/by/4.0/)",
      "source": "https://sketchfab.com/3d-models/robot-hand-f3f2938da9c84a3c8eedc607f7435b55",
      "title": "Robot Hand"
    },
    "generator": "Sketchfab-12.68.0",
    "version": "2.0"
  },
  "bufferViews": [
    {
      "buffer": 0,
      "byteLength": 125952,
      "name": "floatBufferViews",
      "target": 34963
    },
    {
      "buffer": 0,
      "byteLength": 145864,
      "byteOffset": 125952,
      "byteStride": 8,
      "name": "floatBufferViews",
      "target": 34962
    },
    {
      "buffer": 0,
      "byteLength": 437592,
      "byteOffset": 271816,
      "byteStride": 12,
      "name": "floatBufferViews",
      "target": 34962
    },
    {
      "buffer": 0,
      "byteLength": 291728,
      "byteOffset": 709408,
      "byteStride": 16,
      "name": "floatBufferViews",
      "target": 34962
    }
  ],
  "buffers": [
    {
      "byteLength": 1001136,
      "uri": "scene.bin"
    }
  ],
  "images": [
    {
      "uri": "textures/03___Default_baseColor.png"
    },
    {
      "uri": "textures/03___Default_metallicRoughness.png"
    },
    {
      "uri": "textures/03___Default_normal.png"
    },
    {
      "uri": "textures/19___Default_baseColor.png"
    },
    {
      "uri": "textures/19___Default_metallicRoughness.png"
    },
    {
      "uri": "textures/19___Default_normal.png"
    }
  ],
  "materials": [
    {
      "alphaMode": "BLEND",
      "doubleSided": true,
      "name": "03___Default",
      "normalTexture": {
        "index": 2
      },
      "occlusionTexture": {
        "index": 1
      },
      "pbrMetallicRoughness": {
        "baseColorTexture": {
          "index": 0
        },
        "metallicRoughnessTexture": {
          "index": 1
        }
      }
    },
    {
      "alphaMode": "BLEND",
      "doubleSided": true,
      "name": "19___Default",
      "normalTexture": {
        "index": 5
      },
      "occlusionTexture": {
        "index": 4
      },
      "pbrMetallicRoughness": {
        "baseColorTexture": {
          "index": 3
        },
        "metallicRoughnessTexture": {
          "index": 4
        }
      }
    }
  ],
  "meshes": [
    {
      "name": "defaultMaterial",
      "primitives": [
        {
          "attributes": {
            "NORMAL": 1,
            "POSITION": 0,
            "TANGENT": 2,
            "TEXCOORD_0": 3
          },
          "indices": 4,
          "material": 1,
          "mode": 4
        }
      ]
    },
    {
      "name": "defaultMaterial",
      "primitives": [
        {
          "attributes": {
            "NORMAL": 6,
            "POSITION": 5,
            "TANGENT": 7,
            "TEXCOORD_0": 8
          },
          "indices": 9,
          "material": 0,
          "mode": 4
        }
      ]
    }
  ],
  "nodes": [
    {
      "children": [
        1
      ],
      "matrix": [
        1.0,
        0.0,
        0.0,
        0.0,
        0.0,
        2.220446049250313e-16,
        -1.0,
        0.0,
        0.0,
        1.0,
        2.220446049250313e-16,
        0.0,
        0.0,
        0.0,
        0.0,
        1.0
      ],
      "name": "Sketchfab_model"
    },
    {
      "children": [
        2,
        4
      ],
      "matrix": [
        1.0,
        0.0,
        0.0,
        0.0,
        0.0,
        -4.371139006309477e-08,
        0.999999999999999,
        0.0,
        0.0,
        -0.999999999999999,
        -4.371139006309477e-08,
        0.0,
        0.0,
        0.0,
        0.0,
        1.0
      ],
      "name": "Collada visual scene group"
    },
    {
      "children": [
        3
      ],
      "name": "A1"
    },
    {
      "mesh": 0,
      "name": "defaultMaterial"
    },
    {
      "children": [
        5
      ],
      "name": "A2"
    },
    {
      "mesh": 1,
      "name": "defaultMaterial"
    }
  ],
  "samplers": [
    {
      "magFilter": 9729,
      "minFilter": 9987,
      "wrapS": 10497,
      "wrapT": 10497
    }
  ],
  "scene": 0,
  "scenes": [
    {
      "name": "Sketchfab_Scene",
      "nodes": [
        0
      ]
    }
  ],
  "textures": [
    {
      "sampler": 0,
      "source": 0
    },
    {
      "sampler": 0,
      "source": 1
    },
    {
      "sampler": 0,
      "source": 2
    },
    {
      "sampler": 0,
      "source": 3
    },
    {
      "sampler": 0,
      "source": 4
    },
    {
      "sampler": 0,
      "source": 5
    }
  ]
}
